<?xml version="1.0" encoding="UTF-8"?>
<svg id="Capa_2" xmlns="http://www.w3.org/2000/svg" viewBox="0 0 106.61 28.96">
  <defs>
    <style>
      .logo-path {
        fill: currentColor;
        transition: fill 0.3s ease;
      }
    </style>
  </defs>
  <g id="CAPA_1">
    <g id="Primer_plano" class="logo-path">
      <g>
        <g>
          <polygon points="71.29 26.26 70.93 24.36 70.29 26.3 70.19 26.3 69.52 24.36 69.18 26.26 68.8 26.26 69.35 23.3 69.53 23.3 70.24 25.46 70.89 23.3 71.07 23.3 71.67 26.26 71.29 26.26"/>
          <path d="M75.11,26.26l-.21-.62h-1.1l-.22.62h-.45l1.2-3h.11l1.11,3h-.45,0ZM74.38,24.04l-.46,1.3h.88l-.42-1.3Z"/>
          <path d="M78.96,26.26l-.79-1.27c-.09,0-.23,0-.43-.02v1.29h-.4v-2.95s.12,0,.31-.01c.19-.01.34-.02.42-.02.71,0,1.06.28,1.06.85,0,.18-.06.35-.17.5-.11.15-.25.24-.41.28l.86,1.36h-.46,0ZM77.74,23.67v.96c.1.01.19.02.28.02.24,0,.42-.04.53-.12.11-.08.17-.22.17-.42,0-.17-.06-.28-.18-.36s-.3-.11-.56-.11c-.04,0-.12,0-.24.02h0Z"/>
          <polygon points="82.8 26.26 81.96 24.9 81.57 25.46 81.57 26.26 81.17 26.26 81.17 23.3 81.57 23.3 81.57 24.91 82.67 23.3 83.12 23.3 82.24 24.58 83.24 26.26 82.8 26.26"/>
          <polygon points="85.4 23.67 85.4 24.49 86.37 24.49 86.37 24.83 85.4 24.83 85.4 25.9 86.74 25.9 86.74 26.26 84.99 26.26 84.99 23.3 86.76 23.3 86.76 23.67 85.4 23.67"/>
          <polygon points="89.73 23.67 89.73 26.26 89.33 26.26 89.33 23.67 88.38 23.67 88.38 23.3 90.71 23.3 90.71 23.67 89.73 23.67"/>
          <rect x="92.57" y="23.3" width=".4" height="2.95"/>
          <polygon points="97 26.3 95.47 24.14 95.47 26.26 95.09 26.26 95.09 23.3 95.25 23.3 96.74 25.35 96.74 23.3 97.12 23.3 97.12 26.3 97 26.3"/>
          <path d="M101.22,23.51l-.17.33c-.2-.15-.4-.23-.6-.23-.31,0-.55.11-.73.33-.18.22-.27.51-.27.87s.09.62.26.82c.18.21.41.31.72.31.22,0,.39-.06.52-.19v-.69h-.41v-.34h.81v1.29c-.11.09-.26.17-.45.22-.19.06-.38.08-.56.08-.41,0-.73-.14-.97-.41s-.35-.64-.35-1.1.13-.83.39-1.11c.26-.29.61-.43,1.05-.43.31,0,.56.08.75.25h0Z"/>
        </g>
        <g>
          <path d="M12.95,20.6v-7.18c0-1.06-.21-1.83-.62-2.32-.4-.49-1.06-.73-1.98-.73-.42,0-.88.12-1.37.36-.48.24-.85.54-1.12.89v8.98h-2.9v-12.42h2.09l.53,1.16c.79-.93,1.95-1.39,3.49-1.39s2.64.45,3.49,1.33c.86.88,1.29,2.12,1.29,3.7v7.62h-2.9Z"/>
          <path d="M24.87,19.36c-.26.43-.72.79-1.38,1.07-.65.27-1.33.41-2.04.41-1.34,0-2.39-.33-3.15-1-.76-.67-1.15-1.62-1.15-2.85,0-1.44.54-2.56,1.61-3.37,1.08-.81,2.61-1.22,4.6-1.22.34,0,.74.06,1.21.17,0-1.46-.92-2.19-2.77-2.19-1.09,0-2,.18-2.73.54l-.63-2.25c1-.48,2.18-.72,3.56-.72,1.89,0,3.28.43,4.16,1.3.88.86,1.32,2.49,1.32,4.9v2.66c0,1.66.33,2.7,1,3.12-.24.42-.51.67-.8.76-.29.1-.63.15-1.01.15-.42,0-.79-.16-1.12-.46-.33-.31-.56-.64-.67-1.01h0ZM24.59,14.76c-.5-.1-.87-.15-1.11-.15-2.29,0-3.43.75-3.43,2.25,0,1.11.64,1.67,1.93,1.67,1.74,0,2.61-.87,2.61-2.61v-1.16h0Z"/>
          <polygon points="33.99 20.83 32.94 20.83 27.33 8.18 30.51 8.18 33.47 15.77 36.66 8.18 39.73 8.18 33.99 20.83"/>
          <path d="M50.91,15.28h-8.87c.05.99.39,1.76,1.02,2.31s1.47.82,2.53.82c1.32,0,2.32-.34,3.01-1.03l1.12,2.21c-1.02.83-2.54,1.24-4.57,1.24-1.89,0-3.39-.55-4.5-1.66-1.1-1.11-1.64-2.66-1.64-4.65s.6-3.54,1.81-4.75c1.21-1.21,2.67-1.82,4.36-1.82,1.8,0,3.24.54,4.33,1.61,1.09,1.08,1.63,2.44,1.63,4.11,0,.36-.08.89-.24,1.61h0ZM42.15,13.1h6.1c-.2-1.82-1.21-2.72-3.01-2.72-1.66,0-2.68.91-3.08,2.72Z"/>
          <path d="M52.34,23.79l1.83-2.26c1.01.93,2.14,1.39,3.39,1.39.83,0,1.52-.12,2.06-.37s.81-.59.81-1.02c0-.74-.6-1.1-1.8-1.1-.33,0-.81.04-1.45.12-.64.08-1.12.12-1.45.12-2,0-2.99-.71-2.99-2.15,0-.41.17-.81.5-1.21.33-.39.72-.68,1.16-.87-1.41-.92-2.12-2.22-2.12-3.91,0-1.33.49-2.43,1.46-3.29.97-.87,2.17-1.31,3.59-1.31,1.11,0,2.04.21,2.79.63l1.14-1.32,2.01,1.82-1.38,1.01c.48.73.72,1.58.72,2.58,0,1.41-.43,2.55-1.3,3.4-.86.84-1.94,1.26-3.26,1.26-.21,0-.49-.02-.83-.06l-.47-.07c-.05,0-.26.08-.63.25-.36.16-.53.33-.53.51,0,.31.27.46.8.46.24,0,.64-.06,1.21-.17.56-.12,1.05-.17,1.45-.17,2.82,0,4.23,1.13,4.23,3.4,0,1.25-.57,2.24-1.69,2.95-1.13.72-2.49,1.08-4.08,1.08-1.9,0-3.62-.56-5.16-1.68h0ZM55.24,12.54c0,.74.2,1.33.6,1.78.41.44.96.66,1.64.66s1.22-.22,1.59-.65c.37-.43.56-1.03.56-1.79,0-.63-.2-1.16-.6-1.59-.39-.43-.91-.65-1.54-.65-.67,0-1.21.21-1.62.63-.42.42-.63.96-.63,1.61h0Z"/>
          <path d="M71.58,19.36c-.26.43-.72.79-1.38,1.07-.65.27-1.33.41-2.04.41-1.34,0-2.39-.33-3.15-1-.76-.67-1.15-1.62-1.15-2.85,0-1.44.54-2.56,1.61-3.37,1.08-.81,2.61-1.22,4.6-1.22.34,0,.74.06,1.21.17,0-1.46-.92-2.19-2.77-2.19-1.09,0-2,.18-2.73.54l-.63-2.25c1-.48,2.18-.72,3.56-.72,1.89,0,3.28.43,4.16,1.3.88.86,1.32,2.49,1.32,4.9v2.66c0,1.66.33,2.7,1,3.12-.24.42-.51.67-.8.76-.29.1-.63.15-1.01.15-.42,0-.79-.16-1.12-.46-.33-.31-.56-.64-.67-1.01h0ZM71.31,14.76c-.5-.1-.87-.15-1.11-.15-2.29,0-3.43.75-3.43,2.25,0,1.11.64,1.67,1.93,1.67,1.74,0,2.61-.87,2.61-2.61v-1.16h0Z"/>
          <path d="M76.8,10.51h-1.44v-2.33h1.44v-2.53l2.9-1.07v3.59h3.41v2.33h-3.41v5.44c0,.89.14,1.52.42,1.89.28.36.76.54,1.46.54s1.34-.19,1.95-.57v2.67c-.67.23-1.63.35-2.88.35s-2.19-.35-2.85-1.04c-.67-.7-1-1.7-1-2.99v-6.29h0Z"/>
          <path d="M95.63,15.28h-8.87c.05.99.39,1.76,1.02,2.31s1.47.82,2.53.82c1.32,0,2.32-.34,3.01-1.03l1.12,2.21c-1.02.83-2.54,1.24-4.57,1.24-1.89,0-3.39-.55-4.5-1.66-1.1-1.11-1.64-2.66-1.64-4.65s.6-3.54,1.81-4.75c1.21-1.21,2.67-1.82,4.36-1.82,1.8,0,3.24.54,4.33,1.61,1.09,1.08,1.63,2.44,1.63,4.11,0,.36-.08.89-.24,1.61h0ZM86.87,13.1h6.1c-.2-1.82-1.21-2.72-3.01-2.72-1.66,0-2.68.91-3.08,2.72Z"/>
          <path d="M97.1,3.55l2.9-.7v13.97c0,1.53.46,2.44,1.37,2.74-.45.85-1.21,1.28-2.3,1.28-1.31,0-1.97-.91-1.97-2.74V3.55Z"/>
        </g>
        <path d="M104.62,2.81c-.53,0-1.02.19-1.38.56-.39.39-.6.9-.6,1.42s.21,1.01.58,1.39c.38.39.87.59,1.4.59s1.02-.21,1.41-.59c.37-.36.58-.85.58-1.39s-.21-1.03-.57-1.4c-.38-.39-.88-.59-1.42-.59h0ZM106.35,4.81c0,.46-.18.88-.5,1.2-.34.33-.77.51-1.23.51-.44,0-.88-.18-1.2-.51-.33-.33-.51-.76-.51-1.21s.19-.89.52-1.23c.31-.32.74-.49,1.2-.49s.9.18,1.23.51c.32.32.49.75.49,1.23h0ZM104.67,3.63h-.85v2.25h.42v-.96h.42l.46.96h.47l-.5-1.03c.33-.07.51-.29.51-.61,0-.41-.31-.62-.94-.62h0ZM104.6,3.9c.4,0,.58.11.58.39s-.18.36-.57.36h-.36v-.75h.35,0Z"/>
        <g>
          <path class="logo-path" d="M28.98,23.2c-.87,3.43-4.26,5.76-8.69,5.76-10.76,0-21.49-11.09-20.18-21.25.07-.51.69-.41.62.19C-.47,17.22,11.89,27.27,20.46,27.29c3.94.01,6.82-1.58,7.93-4.42.18-.45.74-.24.59.34h0Z"/>
          <path class="logo-path" d="M1.76,2.83C3.3.83,6.25,0,9.38,0c4.67,0,9.88,3.49,12.91,6.62.4.42.09.72-.19.48C18.25,3.84,13.71,1.48,9.48,1.48c-2.81,0-5.01.92-6.29,2.51-.95,1.19-2.37.06-1.43-1.16h0Z"/>
          <path class="logo-path" d="M26.18,20.49c-.67,3.25-3.5,4.98-6.87,4.98-2.58,0-5.25-1.22-7.02-2.77-.53-.47.15-1.5.87-.87,1.66,1.43,4.33,2.67,6.15,2.61,3.06-.08,5.65-1.28,6.42-4.04.16-.56.56-.48.44.09h0Z"/>
          <path class="logo-path" d="M4.2,5.55c1.23-1.45,3.49-2.2,5.87-2.2,3.7,0,8.3,2.37,11.05,5.42.39.44.33.8-.09.39-2.88-2.84-7.52-4.73-10.97-4.73-2.18,0-3.76.83-4.89,1.96-.75.75-1.6-.11-.98-.83Z"/>
        </g>
      </g>
    </g>
  </g>
</svg>
