<?xml version="1.0" encoding="UTF-8"?>
<svg id="Capa_2" xmlns="http://www.w3.org/2000/svg" viewBox="0 0 32.91 32.92">
  <defs>
    <style>
      .cls-1 {
        fill: #fff;
      }
    </style>
  </defs>
  <g id="CAPA_1">
    <g>
      <path class="cls-1" d="M32.91,15.49v1.93c-.02.11-.05.23-.06.34-.05.72-.15,1.43-.31,2.13-.87,3.95-2.89,7.19-6.11,9.63-4,3.03-8.51,4.04-13.43,3.01-3.94-.82-7.14-2.88-9.58-6.07C.77,23.03-.33,19.12.08,14.81c.34-3.49,1.69-6.57,4.01-9.2C6.65,2.73,9.82.94,13.62.25c.62-.11,1.25-.14,1.87-.25.64,0,1.29,0,1.93,0,.08.02.16.05.25.05,2.57.18,4.98.92,7.18,2.26,4.26,2.61,6.89,6.38,7.81,11.31.12.62.17,1.24.26,1.87ZM16.45,29.92c7.4,0,13.43-6.01,13.46-13.44.04-7.38-6.04-13.47-13.46-13.48-7.4,0-13.43,6.01-13.46,13.44-.04,7.38,6.04,13.47,13.46,13.48Z"/>
      <path class="cls-1" d="M14.16,22.7c-.43,0-.78-.16-1.08-.45-1.63-1.63-3.26-3.25-4.88-4.89-.62-.63-.62-1.54-.03-2.13.6-.6,1.51-.6,2.16.04,1.21,1.19,2.42,2.4,3.61,3.62.19.2.28.18.46,0,2.7-2.71,5.4-5.41,8.11-8.12.65-.65,1.47-.73,2.1-.23.63.5.75,1.4.27,2.04-.08.11-.18.22-.28.31-3.08,3.08-6.17,6.17-9.25,9.25-.34.34-.71.58-1.2.56Z"/>
    </g>
  </g>
</svg>